<?xml version="1.0" encoding="utf-8"?>
<!-- Generator: Adobe Illustrator 26.0.2, SVG Export Plug-In . SVG Version: 6.00 Build 0)  -->
<svg version="1.1" id="Warstwa_1" xmlns="http://www.w3.org/2000/svg" xmlns:xlink="http://www.w3.org/1999/xlink" x="0px" y="0px"
	 viewBox="0 0 430 430" style="enable-background:new 0 0 430 430;" xml:space="preserve">
<style type="text/css">
	.st0{fill:url(#SVGID_1_);}
	.st1{fill:url(#SVGID_00000086690230775601320430000004481109073187225788_);}
	.st2{fill:url(#SVGID_00000082343190396564344710000012981261267960377790_);}
	.st3{fill:url(#SVGID_00000134937616073361965620000000084834781838317997_);}
	.st4{fill:url(#SVGID_00000091716605203887876440000007494274188482793351_);}
	.st5{fill:url(#SVGID_00000100372709742884108550000016276804861342906805_);}
	.st6{fill:url(#SVGID_00000179639770846250256490000001828033653427168949_);}
	.st7{fill:url(#SVGID_00000124157847271118732130000002926008644930362796_);}
	.st8{fill:url(#SVGID_00000043425061680278817370000016940670715831684756_);}
	.st9{fill:url(#SVGID_00000117672855375147652530000005838862333812661656_);}
	.st10{fill:url(#SVGID_00000127752787476897991540000011772244410061943203_);}
	.st11{fill:url(#SVGID_00000137110404359583614340000015066243779815919245_);}
	.st12{fill:url(#SVGID_00000015340830761526107550000014473708324210875323_);}
	.st13{fill:url(#SVGID_00000127039285996111068580000004862776011354187678_);}
	.st14{fill:url(#SVGID_00000024711848047469225710000009155290315130723251_);}
	.st15{fill:url(#SVGID_00000181080999460632387600000002993201270175116417_);}
	.st16{fill:url(#SVGID_00000095337155379826173060000000743737780398801073_);}
	.st17{fill:url(#SVGID_00000068675202855219998260000002031296543174059450_);}
	.st18{fill:url(#SVGID_00000080193615856784228230000005194530768851013532_);}
	.st19{fill:url(#SVGID_00000049216119041885978810000000810554519946371249_);}
	.st20{fill:url(#SVGID_00000169518203032147685530000008438943302461304487_);}
	.st21{fill:url(#SVGID_00000025442678336851816300000010767990389588982203_);}
	.st22{fill:url(#SVGID_00000041976491422505758890000003910595668699996307_);}
	.st23{fill:url(#SVGID_00000003095668143648848030000013754795865360029363_);}
	.st24{fill:none;}
	.st25{fill:url(#SVGID_00000074433796960724690580000005219157549015592098_);}
	.st26{fill:url(#SVGID_00000154407703175946315230000008249047575647318401_);}
	.st27{fill:url(#SVGID_00000073681938019014853140000003500316246651839411_);}
	.st28{fill:url(#SVGID_00000119100044535390027940000017778161258797955740_);}
	.st29{fill:url(#SVGID_00000005226033054872247080000015600635719382887589_);}
	.st30{fill:url(#SVGID_00000076566507531958385510000014597795375409065105_);}
	.st31{fill:url(#SVGID_00000160874286841385885740000008940773293870847872_);}
	.st32{fill:url(#SVGID_00000051366410098454996920000015386379481030896307_);}
	.st33{fill:url(#SVGID_00000017511365133562692790000003808676048825828480_);}
	.st34{fill:url(#SVGID_00000060752163857860789910000009701905043472826294_);}
	.st35{fill:url(#SVGID_00000008838734589049349300000009288490676765755578_);}
	.st36{fill:url(#SVGID_00000173162915773132786810000012617706210665039249_);}
	.st37{fill:url(#SVGID_00000057859873652089648870000016819416119581478784_);}
	.st38{fill:url(#SVGID_00000041987992375758153180000010371045317880590483_);}
	.st39{fill:url(#SVGID_00000011023510813142851680000014685017636385656239_);}
	.st40{fill:url(#SVGID_00000182511299152929593650000017014957243244840122_);}
	.st41{fill:url(#SVGID_00000165193287305698293640000016255161549597198256_);}
	.st42{fill:url(#SVGID_00000181797121222455190990000002399475403726410171_);}
</style>
<linearGradient id="SVGID_1_" gradientUnits="userSpaceOnUse" x1="121.842" y1="97.8563" x2="307.9621" y2="283.9763">
	<stop  offset="0" style="stop-color:#cb5eee"/>
	<stop  offset="1" style="stop-color:#4be1ec"/>
</linearGradient>
<path class="st0" d="M337.49,169.32c-4.38-60.79-53.54-109.58-114.34-113.49c-34.4-2.22-67.12,9.49-92.14,32.95
	c-24.67,23.13-38.82,55.78-38.82,89.58c0,12.91,2.11,25.98,6.27,38.85c0,0,0,0,0,0c23.63,73.1,108.88,152.29,112.49,155.63
	c1.15,1.06,2.61,1.59,4.07,1.59c1.54,0,3.07-0.59,4.24-1.75c3.84-3.83,94.19-94.53,113.16-158.21
	C336.87,199.52,338.58,184.33,337.49,169.32z M320.92,211.04c-15.89,53.33-88.01,130.3-106.04,148.96
	c-17.62-17.07-85.25-85.39-105-146.48c-3.77-11.68-5.69-23.51-5.69-35.16c0-30.95,12.44-59.65,35.02-80.83
	c22.58-21.17,52.11-31.73,83.16-29.73c54.85,3.53,99.2,47.54,103.15,102.38C326.5,183.75,324.95,197.49,320.92,211.04z
	 M215.01,117.41c-33.62,0-60.96,27.35-60.96,60.96c0,33.61,27.35,60.96,60.96,60.96s60.96-27.35,60.96-60.96
	C275.97,144.76,248.63,117.41,215.01,117.41z M215.01,227.33c-27,0-48.96-21.96-48.96-48.96c0-27,21.96-48.96,48.96-48.96
	s48.96,21.97,48.96,48.96C263.97,205.37,242.01,227.33,215.01,227.33z"/>
</svg>
